Coordinates
version=1
nRows=27
nColumns=12
inDegrees=yes

Units are S.I. units (second, meters, Newtons, ...)
Angles are in degrees

endheader
time	SC_y	SC_z	SC_x	AC_y	AC_z	AC_x	GH_y	GH_z	GH_yy	EL_x	PS_y
       0.0              -50.69         0.5174          23.69          52.58          7.019       -0.02486         -149.3          18.15          125.8           83.4          102.7
   0.02658              -50.69          0.518          23.69          52.58          7.017       -0.02776         -149.2          18.15          125.7          83.39          102.7
   0.05316              -50.69         0.5187          23.69          52.58          7.015       -0.03084         -149.2          18.15          125.7          83.39          102.7
   0.07973              -50.68         0.5194          23.69          52.58          7.013       -0.03411         -149.2          18.15          125.7          83.38          102.7
    0.1063              -50.68         0.5202          23.69          52.58          7.011       -0.03759         -149.1          18.15          125.7          83.38          102.7
    0.1329              -50.68          0.521          23.69          52.58          7.008       -0.04131         -149.1          18.15          125.7          83.37          102.7
    0.1595              -50.67         0.5218          23.69          52.58          7.006       -0.04527         -149.1          18.15          125.7          83.37          102.7
     0.186              -50.67         0.5227          23.69          52.58          7.003       -0.04951         -149.0          18.15          125.7          83.36          102.6
    0.2126              -50.67         0.5237          23.69          52.58            7.0       -0.05406         -149.0          18.15          125.7          83.36          102.6
    0.2392              -50.66         0.5248          23.69          52.57          6.997       -0.05893         -148.9          18.15          125.7          83.35          102.6
    0.2658              -50.66         0.5259          23.69          52.57          6.994       -0.06416         -148.9          18.15          125.7          83.34          102.6
    0.2924              -50.66         0.5271          23.69          52.57           6.99       -0.06979         -148.8          18.15          125.7          83.33          102.6
    0.3189              -50.65         0.5284          23.69          52.57          6.986       -0.07586         -148.7          18.15          125.7          83.32          102.5
    0.3455              -50.65         0.5298          23.69          52.57          6.982       -0.08241         -148.7          18.15          125.6          83.31          102.5
    0.3721              -50.64         0.5314          23.69          52.56          6.977       -0.08951         -148.6          18.15          125.6           83.3          102.5
    0.3987              -50.63          0.533          23.68          52.56          6.972        -0.0972         -148.5          18.15          125.6          83.29          102.5
    0.4252              -50.63         0.5348          23.68          52.56          6.967        -0.1056         -148.4          18.15          125.6          83.28          102.4
    0.4518              -50.62         0.5368          23.68          52.56          6.961        -0.1147         -148.4          18.15          125.6          83.27          102.4
    0.4784              -50.61         0.5389          23.68          52.55          6.955        -0.1246         -148.3          18.15          125.6          83.25          102.4
     0.505              -50.61         0.5413          23.68          52.55          6.948        -0.1355         -148.2          18.15          125.5          83.24          102.3
    0.5316               -50.6         0.5439          23.68          52.55           6.94        -0.1475         -148.0          18.15          125.5          83.22          102.3
    0.5581              -50.59         0.5467          23.68          52.54          6.931        -0.1606         -147.9          18.15          125.5           83.2          102.2
    0.5847              -50.57         0.5498          23.67          52.54          6.922        -0.1752         -147.8          18.15          125.5          83.18          102.2
    0.6113              -50.56         0.5533          23.67          52.53          6.911        -0.1913         -147.6          18.15          125.4          83.15          102.1
    0.6379              -50.55         0.5572          23.67          52.53            6.9        -0.2092         -147.4          18.15          125.4          83.13          102.0
    0.6645              -50.53         0.5615          23.67          52.52          6.887        -0.2292         -147.2          18.16          125.4           83.1          102.0
     0.691              -50.52         0.5663          23.66          52.51          6.872        -0.2516         -147.0          18.16          125.3          83.07          101.9
